<!DOCTYPE svg PUBLIC "-//W3C//DTD SVG 1.1//EN" "http://www.w3.org/Graphics/SVG/1.1/DTD/svg11.dtd">
<!-- Uploaded to: SVG Repo, www.svgrepo.com, Transformed by: SVG Repo Mixer Tools -->
<svg height="800px" width="800px" version="1.1" id="Capa_1" xmlns="http://www.w3.org/2000/svg" xmlns:xlink="http://www.w3.org/1999/xlink" viewBox="0 0 189.679 189.679" xml:space="preserve" fill="#ef0101" stroke="#ef0101">
<g id="SVGRepo_bgCarrier" stroke-width="0"/>
<g id="SVGRepo_tracerCarrier" stroke-linecap="round" stroke-linejoin="round" stroke="#CCCCCC" stroke-width="0.379358"/>
<g id="SVGRepo_iconCarrier"> <g> <path style="fill:#d70909;" d="M152.759,32.918c-1.746-10.5-3.4-20.407-3.4-28.545V0H40.329v4.373 c0,8.153-1.664,18.12-3.436,28.699c-4.212,25.213-8.983,53.804,6.571,72.175c9.67,11.42,25.625,17.168,48.78,17.572v58.128h-25.02 v8.732h59.259v-8.732h-25.499v-58.289c21.287-0.913,36.089-6.61,45.23-17.415C161.785,86.866,156.993,58.249,152.759,32.918z M94.839,114.119c-21.806,0-36.429-4.738-44.707-14.516c-12.938-15.285-8.514-41.79-4.602-65.207 c1.535-9.158,2.985-17.808,3.418-25.664h91.78c0.429,7.763,1.865,16.363,3.382,25.438l0.05,0.297 c3.905,23.366,8.328,49.85-4.61,65.135C131.275,109.38,116.652,114.119,94.839,114.119z"/> </g> </g>
</svg>